<?xml version="1.0" standalone="no"?>
<!DOCTYPE svg PUBLIC "-//W3C//DTD SVG 20010904//EN"
 "http://www.w3.org/TR/2001/REC-SVG-20010904/DTD/svg10.dtd">
<svg version="1.0" xmlns="http://www.w3.org/2000/svg"
 width="32.000000pt" height="48.000000pt" viewBox="0 0 32.000000 48.000000"
 preserveAspectRatio="xMidYMid meet">
<metadata>
Created by potrace 1.16, written by Peter Selinger 2001-2019
</metadata>
<g transform="translate(0.000000,48.000000) scale(0.100000,-0.100000)"
fill="#000000" stroke="none">
<path d="M172 449 c-9 -17 -30 -47 -46 -67 -63 -81 -103 -193 -123 -344 -5
-38 -5 -38 30 -38 31 0 35 3 41 33 8 39 45 92 46 65 0 -11 8 -18 20 -18 11 0
25 -9 32 -20 18 -28 24 -25 32 12 6 31 6 31 27 12 17 -16 22 -16 29 -4 6 8 10
18 10 22 0 10 -35 28 -57 28 -47 1 -45 17 6 65 57 53 87 118 77 165 -4 22 -1
32 9 36 20 8 19 24 -2 40 -17 13 -17 13 0 14 9 0 17 7 17 15 0 12 -14 15 -65
15 -63 0 -67 -1 -83 -31z"/>
</g>
</svg>
