<?xml version="1.0" standalone="no"?>
<!DOCTYPE svg PUBLIC "-//W3C//DTD SVG 20010904//EN"
 "http://www.w3.org/TR/2001/REC-SVG-20010904/DTD/svg10.dtd">
<svg version="1.0" xmlns="http://www.w3.org/2000/svg"
 width="32.000000pt" height="48.000000pt" viewBox="0 0 32.000000 48.000000"
 preserveAspectRatio="xMidYMid meet">

<g transform="translate(0.000000,48.000000) scale(0.100000,-0.100000)"
fill="#000000" stroke="none">
<path d="M199 467 c-9 -7 -22 -24 -30 -38 -8 -14 -33 -53 -56 -88 -42 -62 -83
-165 -83 -208 0 -12 -7 -43 -16 -69 -17 -52 -18 -49 17 -58 24 -5 27 -2 33 27
3 17 16 48 27 67 21 34 22 35 32 12 6 -12 18 -22 28 -22 10 0 23 -8 28 -17 9
-16 10 -16 11 4 0 15 -9 24 -30 32 -16 5 -30 15 -30 21 0 6 3 10 8 8 13 -7 56
-25 85 -37 23 -9 28 -9 25 1 -3 7 -13 14 -24 16 -32 5 -74 24 -74 33 0 5 4 9
10 9 20 0 83 66 107 113 18 36 24 60 20 84 -4 21 -1 38 9 47 12 13 12 16 -3
25 -17 10 -17 12 -1 24 10 8 15 17 11 20 -11 12 -87 7 -104 -6z"/>
</g>
</svg>
